<?xml version="1.0" encoding="utf-8"?>
<!-- Generator: Adobe Illustrator 24.0.0, SVG Export Plug-In . SVG Version: 6.00 Build 0)  -->
<svg version="1.1" id="Layer_1" xmlns="http://www.w3.org/2000/svg" xmlns:xlink="http://www.w3.org/1999/xlink" x="0px" y="0px"
	 viewBox="0 0 81.3 21.4" style="enable-background:new 0 0 81.3 21.4;" xml:space="preserve">
<style type="text/css">
	.st0{fill-rule:evenodd;clip-rule:evenodd;fill:#EA6267;}
	.st1{fill:#FFFFFF;}
	.st2{fill-rule:evenodd;clip-rule:evenodd;fill:#FEFEFE;}
</style>
<g id="Layer_x0020_1">
	<path class="st0" d="M0.6,0h20.2c0.3,0,0.6,0.3,0.6,0.6v20.2c0,0.3-0.3,0.6-0.6,0.6H0.6c-0.3,0-0.6-0.3-0.6-0.6V0.6
		C0,0.3,0.3,0,0.6,0z"/>
	<path class="st1" d="M10.8,14.7c-0.8,0-1.7-0.3-2.2-0.8c-0.3-0.3-0.3-0.8-0.3-1.1c4.7,0,7.7-1.1,7.7-4.1c0-0.6-0.3-1.1-0.3-1.4
		c-0.6,0.3-1.9,0.8-3.3,0.8c0.3,0.3,0.3,0.3,0.3,0.6c0,1.1-1.4,1.4-4.1,1.4C8.8,9.4,9.1,8.6,10,8.1C8.8,7.8,8,7.5,7.2,7.2
		C6.9,7.5,6.9,8.1,6.9,8.1c0,0.3,0.3,0.3,0.3,0.6L6.9,10c0,0.3-0.3,0.3-0.3,0.3H6.4L6.1,10l0.3-1.7c0,0,0-0.3,0.3-0.3
		c0-0.3,0-0.6,0.3-1.1C5.5,8.6,5,10.5,5,12.5c0,3,1.7,5,5,5c2.2,0,3.9-0.6,5.5-1.1l-1.1-2.2C13.5,14.4,12.2,14.7,10.8,14.7z"/>
	<path class="st2" d="M16,6.7c0,0-2.5,1.1-4.4,1.1c-0.8,0-2.5-0.3-3.9-0.8C7.5,7,7.2,6.7,6.9,6.7C6.4,6.4,6.1,6.1,6.1,5.8
		c-0.3-0.6,4.1-1.9,5.5-1.9C13.3,3.9,18,6.1,16,6.7z"/>
	<path class="st1" d="M35.1,12.5l-1.4-4.4c-0.3,0-0.3-0.3-0.3-0.6c-0.3-0.3-0.3-0.6-0.3-0.8c0,0.3-0.3,0.6-0.3,0.8
		c0,0.3-0.3,0.6-0.3,0.6L31,12.5H35.1z M39.5,17.5h-1.9c-0.3,0-0.3,0-0.6,0c0-0.3-0.3-0.3-0.3-0.6l-0.8-2.8h-5.5l-1.1,2.8
		c0,0.3,0,0.3-0.3,0.6c0,0-0.3,0-0.6,0h-1.7l5-13h2.5L39.5,17.5z M46.2,10.5c-0.3-0.3-0.6-0.6-0.8-0.6c-0.3-0.3-0.6-0.3-0.8-0.3
		s-0.8,0-1.1,0.3c-0.3,0-0.3,0.3-0.6,0.6c-0.3,0.3-0.3,0.6-0.6,0.8c0,0.6,0,0.8,0,1.4s0,1.1,0,1.4c0.3,0.6,0.3,0.8,0.6,1.1
		c0,0.3,0.3,0.3,0.6,0.6c0.3,0,0.6,0,0.8,0c0.3,0,0.8,0,1.1-0.3c0.3-0.3,0.6-0.6,0.8-0.8V10.5z M48.4,3.9v13.5H47
		c-0.3,0-0.3,0-0.6-0.3v-1.1c-0.6,0.6-0.8,0.8-1.4,1.1c-0.6,0.3-1.1,0.6-1.7,0.6c-0.6,0-1.1-0.3-1.4-0.3c-0.6-0.3-0.8-0.6-1.1-1.1
		c-0.3-0.3-0.6-0.8-0.8-1.4c0-0.6-0.3-1.4-0.3-2.2c0-0.6,0.3-1.1,0.3-1.9c0.3-0.6,0.6-1.1,0.8-1.4c0.6-0.6,0.8-0.8,1.4-1.1
		c0.6-0.3,1.1-0.3,1.7-0.3c0.6,0,0.8,0,1.4,0.3c0.3,0,0.6,0.3,0.8,0.6v-5H48.4z M50.9,17.5V8.1h1.4c0.3,0,0.3,0.3,0.6,0.6v0.6
		c0.3,0,0.3-0.3,0.6-0.3c0.3-0.3,0.3-0.3,0.6-0.6c0.3,0,0.6-0.3,0.6-0.3c0.3,0,0.6,0,0.8,0c0.6,0,1.1,0,1.7,0.6
		c0.3,0.3,0.6,0.6,0.8,1.1c0-0.3,0.3-0.6,0.6-0.8c0-0.3,0.3-0.3,0.6-0.6c0.3,0,0.6-0.3,0.8-0.3c0.3,0,0.6,0,0.8,0
		c0.6,0,1.1,0,1.4,0.3c0.6,0,0.8,0.3,1.1,0.6c0.3,0.3,0.6,0.8,0.6,1.1c0.3,0.6,0.3,1.1,0.3,1.7v5.8h-2.2v-5.8c0-0.6-0.3-1.1-0.3-1.4
		C61.1,10,60.5,9.7,60,9.7c0,0-0.3,0-0.6,0.3c-0.3,0-0.3,0-0.6,0.3c0,0-0.3,0.3-0.3,0.6c0,0.3-0.3,0.6-0.3,0.8v5.8h-2.2v-5.8
		c0-0.8,0-1.1-0.3-1.4c-0.3-0.3-0.6-0.6-1.1-0.6c-0.3,0-0.6,0-0.8,0.3c-0.3,0.3-0.6,0.3-0.8,0.6v6.9H50.9z M68.3,8.1v9.4h-2.2V8.1
		H68.3z M68.6,5.6v0.3c0,0.3-0.3,0.6-0.3,0.6C68,6.7,68,6.7,67.7,6.7c0,0-0.3,0.3-0.6,0.3s-0.3-0.3-0.6-0.3c0,0-0.3,0-0.6-0.3
		c0,0,0-0.3-0.3-0.6V5.6c0-0.3,0-0.6,0-0.8c0.3,0,0.3-0.3,0.3-0.3c0.3-0.3,0.6-0.3,0.6-0.3c0.3-0.3,0.3-0.3,0.6-0.3s0.6,0,0.6,0.3
		c0.3,0,0.3,0,0.6,0.3l0.3,0.3C68.6,5,68.6,5.3,68.6,5.6z M76.3,10v0.3c-0.3,0-0.3,0-0.3,0c-0.3,0-0.3,0-0.6,0
		c0-0.3-0.3-0.3-0.3-0.3c-0.3,0-0.3-0.3-0.6-0.3c-0.3,0-0.6,0-0.8,0c-0.3,0-0.8,0-1.1,0.3c-0.3,0-0.3,0.3-0.3,0.6s0,0.6,0.3,0.6
		c0,0.3,0.3,0.3,0.6,0.6c0,0,0.3,0,0.6,0.3c0.3,0,0.6,0,0.8,0.3c0.3,0,0.6,0,0.8,0.3c0.3,0,0.6,0.3,0.8,0.3c0.3,0.3,0.3,0.6,0.6,0.8
		c0,0.3,0,0.6,0,0.8c0,0.6,0,1.1,0,1.4c-0.3,0.3-0.6,0.8-0.8,1.1c-0.3,0.3-0.8,0.3-1.1,0.6c-0.6,0-1.1,0.3-1.7,0.3
		c-0.3,0-0.6,0-0.8-0.3c-0.6,0-0.8,0-1.1,0c-0.3-0.3-0.6-0.3-0.6-0.6c-0.3,0-0.6-0.3-0.8-0.3l0.6-1.1h0.3c0-0.3,0.3-0.3,0.3-0.3
		c0.3,0,0.3,0,0.6,0.3c0,0,0.3,0,0.3,0.3c0.3,0,0.6,0,0.6,0.3c0.3,0,0.6,0,0.8,0c0.3,0,0.6,0,0.8,0c0.3-0.3,0.3-0.3,0.6-0.3
		c0-0.3,0-0.3,0.3-0.6V15c0-0.3,0-0.6-0.3-0.6c0-0.3-0.3-0.3-0.6-0.3c0-0.3-0.3-0.3-0.6-0.3c-0.3-0.3-0.6-0.3-0.8-0.3
		c-0.3-0.3-0.8-0.3-1.1-0.6c-0.3,0-0.3-0.3-0.6-0.3c-0.3-0.3-0.6-0.6-0.6-0.8c-0.3-0.3-0.3-0.6-0.3-1.1c0-0.3,0-0.8,0.3-1.1
		c0.3-0.3,0.3-0.6,0.6-0.8c0.6-0.3,0.8-0.6,1.1-0.6c0.6-0.3,1.1-0.3,1.7-0.3s1.1,0,1.7,0.3c0.6,0.3,1.1,0.6,1.4,0.8L76.3,10z
		 M81,8.1v9.4h-2.2V8.1H81z M81.3,5.6v0.3c0,0.3-0.3,0.6-0.3,0.6c-0.3,0.3-0.3,0.3-0.6,0.3c-0.3,0-0.3,0.3-0.6,0.3
		c-0.3,0-0.3-0.3-0.6-0.3c-0.3,0-0.3,0-0.6-0.3c0,0,0-0.3-0.3-0.6V5.6c0-0.3,0-0.6,0-0.8c0.3,0,0.3-0.3,0.3-0.3
		c0.3-0.3,0.3-0.3,0.6-0.3c0.3-0.3,0.3-0.3,0.6-0.3c0.3,0,0.3,0,0.6,0.3c0.3,0,0.3,0,0.6,0.3l0.3,0.3C81.3,5,81.3,5.3,81.3,5.6z"/>
</g>
</svg>
