<?xml version="1.0" encoding="UTF-8"?>
<!DOCTYPE svg PUBLIC "-//W3C//DTD SVG 1.1//EN" "http://www.w3.org/Graphics/SVG/1.1/DTD/svg11.dtd">
<!-- Creator: CorelDRAW X7 -->
<svg xmlns="http://www.w3.org/2000/svg" xml:space="preserve" width="28.6721mm" height="7.5385mm" version="1.1" style="shape-rendering:geometricPrecision; text-rendering:geometricPrecision; image-rendering:optimizeQuality; fill-rule:evenodd; clip-rule:evenodd"
viewBox="0 0 294 77"
 xmlns:xlink="http://www.w3.org/1999/xlink">
 <defs>
  <style type="text/css">
   <![CDATA[
    .fil2 {fill:#FEFEFE}
    .fil0 {fill:#EA6267}
    .fil3 {fill:#4A4A4A;fill-rule:nonzero}
    .fil1 {fill:white;fill-rule:nonzero}
   ]]>
  </style>
 </defs>
 <g id="Layer_x0020_1">
  <metadata id="CorelCorpID_0Corel-Layer"/>
  <path class="fil0" d="M2 0l73 0c1,0 2,1 2,2l0 73c0,1 -1,2 -2,2l-73 0c-1,0 -2,-1 -2,-2l0 -73c0,-1 1,-2 2,-2z"/>
  <path class="fil1" d="M39 53c-3,0 -6,-1 -8,-3 -1,-1 -1,-3 -1,-4 17,0 28,-4 28,-15 0,-2 -1,-4 -1,-5 -2,1 -7,3 -12,3 1,1 1,1 1,2 0,4 -5,5 -15,5 1,-2 2,-5 5,-7 -4,-1 -7,-2 -10,-3 -1,1 -1,3 -1,3 0,1 1,1 1,2l-1 5c0,1 -1,1 -1,1l-1 0c0,0 -1,-1 -1,-1l1 -6c0,0 0,-1 1,-1 0,-1 0,-2 1,-4 -5,6 -7,13 -7,20 0,11 6,18 18,18 8,0 14,-2 20,-4l-4 -8c-3,1 -8,2 -13,2z"/>
  <path class="fil2" d="M58 24c0,0 -9,4 -16,4 -3,0 -9,-1 -14,-3 -1,0 -2,-1 -3,-1 -2,-1 -3,-2 -3,-3 -1,-2 15,-7 20,-7 6,0 23,8 16,10z"/>
  <path class="fil3" d="M127 45l-5 -16c-1,0 -1,-1 -1,-2 -1,-1 -1,-2 -1,-3 0,1 -1,2 -1,3 0,1 -1,2 -1,2l-6 16 15 0zm16 18l-7 0c-1,0 -1,0 -2,0 0,-1 -1,-1 -1,-2l-3 -10 -20 0 -4 10c0,1 0,1 -1,2 0,0 -1,0 -2,0l-6 0 18 -47 9 0 19 47zm24 -25c-1,-1 -2,-2 -3,-2 -1,-1 -2,-1 -3,-1 -1,0 -3,0 -4,1 -1,0 -1,1 -2,2 -1,1 -1,2 -2,3 0,2 0,3 0,5 0,2 0,4 0,5 1,2 1,3 2,4 0,1 1,1 2,2 1,0 2,0 3,0 1,0 3,0 4,-1 1,-1 2,-2 3,-3l0 -15zm8 -24l0 49 -5 0c-1,0 -1,0 -2,-1l0 -4c-2,2 -3,3 -5,4 -2,1 -4,2 -6,2 -2,0 -4,-1 -5,-1 -2,-1 -3,-2 -4,-4 -1,-1 -2,-3 -3,-5 0,-2 -1,-5 -1,-8 0,-2 1,-4 1,-7 1,-2 2,-4 3,-5 2,-2 3,-3 5,-4 2,-1 4,-1 6,-1 2,0 3,0 5,1 1,0 2,1 3,2l0 -18 8 0zm9 49l0 -34 5 0c1,0 1,1 2,2l0 2c1,0 1,-1 2,-1 1,-1 1,-1 2,-2 1,0 2,-1 2,-1 1,0 2,0 3,0 2,0 4,0 6,2 1,1 2,2 3,4 0,-1 1,-2 2,-3 0,-1 1,-1 2,-2 1,0 2,-1 3,-1 1,0 2,0 3,0 2,0 4,0 5,1 2,0 3,1 4,2 1,1 2,3 2,4 1,2 1,4 1,6l0 21 -8 0 0 -21c0,-2 -1,-4 -1,-5 -1,-1 -3,-2 -5,-2 0,0 -1,0 -2,1 -1,0 -1,0 -2,1 0,0 -1,1 -1,2 0,1 -1,2 -1,3l0 21 -8 0 0 -21c0,-3 0,-4 -1,-5 -1,-1 -2,-2 -4,-2 -1,0 -2,0 -3,1 -1,1 -2,1 -3,2l0 25 -8 0zm63 -34l0 34 -8 0 0 -34 8 0zm1 -9c0,0 0,1 0,1 0,1 -1,2 -1,2 -1,1 -1,1 -2,1 0,0 -1,1 -2,1 -1,0 -1,-1 -2,-1 0,0 -1,0 -2,-1 0,0 0,-1 -1,-2 0,0 0,-1 0,-1 0,-1 0,-2 0,-3 1,0 1,-1 1,-1 1,-1 2,-1 2,-1 1,-1 1,-1 2,-1 1,0 2,0 2,1 1,0 1,0 2,1 0,0 1,1 1,1 0,1 0,2 0,3zm28 16c0,0 0,1 0,1 -1,0 -1,0 -1,0 -1,0 -1,0 -2,0 0,-1 -1,-1 -1,-1 -1,0 -1,-1 -2,-1 -1,0 -2,0 -3,0 -1,0 -3,0 -4,1 -1,0 -1,1 -1,2 0,1 0,2 1,2 0,1 1,1 2,2 0,0 1,0 2,1 1,0 2,0 3,1 1,0 2,0 3,1 1,0 2,1 3,1 1,1 1,2 2,3 0,1 0,2 0,3 0,2 0,4 0,5 -1,1 -2,3 -3,4 -1,1 -3,1 -4,2 -2,0 -4,1 -6,1 -1,0 -2,0 -3,-1 -2,0 -3,0 -4,0 -1,-1 -2,-1 -2,-2 -1,0 -2,-1 -3,-1l2 -4c0,0 1,0 1,0 0,-1 1,-1 1,-1 1,0 1,0 2,1 0,0 1,0 1,1 1,0 2,0 2,1 1,0 2,0 3,0 1,0 2,0 3,0 1,-1 1,-1 2,-1 0,-1 0,-1 1,-2 0,0 0,-1 0,-1 0,-1 0,-2 -1,-2 0,-1 -1,-1 -2,-1 0,-1 -1,-1 -2,-1 -1,-1 -2,-1 -3,-1 -1,-1 -3,-1 -4,-2 -1,0 -1,-1 -2,-1 -1,-1 -2,-2 -2,-3 -1,-1 -1,-2 -1,-4 0,-1 0,-3 1,-4 1,-1 1,-2 2,-3 2,-1 3,-2 4,-2 2,-1 4,-1 6,-1 2,0 4,0 6,1 2,1 4,2 5,3l-2 3zm17 -7l0 34 -8 0 0 -34 8 0zm1 -9c0,0 0,1 0,1 0,1 -1,2 -1,2 -1,1 -1,1 -2,1 -1,0 -1,1 -2,1 -1,0 -1,-1 -2,-1 -1,0 -1,0 -2,-1 0,0 0,-1 -1,-2 0,0 0,-1 0,-1 0,-1 0,-2 0,-3 1,0 1,-1 1,-1 1,-1 1,-1 2,-1 1,-1 1,-1 2,-1 1,0 1,0 2,1 1,0 1,0 2,1 0,0 1,1 1,1 0,1 0,2 0,3z"/>
 </g>
</svg>
